<svg width="1183" height="274" viewBox="0 0 1183 274" fill="none" xmlns="http://www.w3.org/2000/svg">
<path d="M221.787 194.56C213.339 194.56 206.085 193.109 200.027 190.208C193.968 187.221 188.976 183.339 185.051 178.56C181.125 173.696 178.224 168.448 176.347 162.816C174.469 157.184 173.531 151.723 173.531 146.432V143.616C173.531 137.728 174.469 131.968 176.347 126.336C178.309 120.619 181.253 115.456 185.179 110.848C189.189 106.24 194.181 102.571 200.155 99.84C206.128 97.1093 213.125 95.744 221.147 95.744C229.68 95.744 237.232 97.3653 243.803 100.608C250.459 103.765 255.792 108.245 259.803 114.048C263.813 119.765 266.16 126.421 266.843 134.016H243.035C242.437 130.773 241.157 127.957 239.195 125.568C237.232 123.179 234.715 121.344 231.643 120.064C228.571 118.699 225.072 118.016 221.147 118.016C217.477 118.016 214.149 118.656 211.163 119.936C208.261 121.216 205.787 123.051 203.739 125.44C201.776 127.744 200.24 130.56 199.131 133.888C198.107 137.216 197.595 140.971 197.595 145.152C197.595 149.333 198.107 153.088 199.131 156.416C200.24 159.744 201.819 162.603 203.867 164.992C206 167.381 208.56 169.216 211.547 170.496C214.533 171.691 217.947 172.288 221.787 172.288C227.76 172.288 232.795 170.837 236.891 167.936C241.072 165.035 243.589 161.152 244.443 156.288H268.251C267.483 163.285 265.136 169.685 261.211 175.488C257.285 181.291 251.995 185.941 245.339 189.44C238.683 192.853 230.832 194.56 221.787 194.56ZM326.588 194.56C318.054 194.56 310.63 193.109 304.316 190.208C298.001 187.221 292.753 183.339 288.572 178.56C284.39 173.696 281.276 168.448 279.228 162.816C277.18 157.184 276.156 151.723 276.156 146.432V143.616C276.156 137.728 277.222 131.968 279.356 126.336C281.489 120.619 284.689 115.456 288.956 110.848C293.222 106.24 298.47 102.571 304.7 99.84C311.014 97.1093 318.31 95.744 326.588 95.744C334.78 95.744 341.99 97.1093 348.22 99.84C354.534 102.571 359.825 106.24 364.092 110.848C368.358 115.456 371.558 120.619 373.692 126.336C375.91 131.968 377.02 137.728 377.02 143.616V146.432C377.02 151.723 375.953 157.184 373.82 162.816C371.772 168.448 368.657 173.696 364.476 178.56C360.294 183.339 355.046 187.221 348.732 190.208C342.417 193.109 335.036 194.56 326.588 194.56ZM326.588 172.288C330.684 172.288 334.353 171.605 337.596 170.24C340.838 168.875 343.612 166.955 345.916 164.48C348.22 162.005 349.969 159.147 351.164 155.904C352.358 152.576 352.956 148.992 352.956 145.152C352.956 141.056 352.316 137.344 351.036 134.016C349.841 130.688 348.092 127.829 345.788 125.44C343.484 123.051 340.71 121.216 337.468 119.936C334.225 118.656 330.598 118.016 326.588 118.016C322.492 118.016 318.822 118.656 315.58 119.936C312.337 121.216 309.564 123.051 307.26 125.44C304.956 127.829 303.206 130.688 302.012 134.016C300.817 137.344 300.22 141.056 300.22 145.152C300.22 148.992 300.817 152.576 302.012 155.904C303.206 159.147 304.956 162.005 307.26 164.48C309.564 166.955 312.337 168.875 315.58 170.24C318.822 171.605 322.492 172.288 326.588 172.288ZM412.637 192.512V170.24H427.997C432.007 170.24 435.591 169.685 438.749 168.576C441.991 167.381 444.722 165.717 446.941 163.584C449.159 161.365 450.866 158.72 452.061 155.648C453.255 152.491 453.853 148.949 453.853 145.024C453.853 140.928 453.255 137.344 452.061 134.272C450.866 131.115 449.159 128.512 446.941 126.464C444.722 124.331 441.991 122.752 438.749 121.728C435.591 120.619 432.007 120.064 427.997 120.064H412.637V97.792H426.973C435.421 97.792 442.802 98.9867 449.117 101.376C455.517 103.765 460.85 107.093 465.117 111.36C469.383 115.541 472.583 120.405 474.717 125.952C476.85 131.499 477.917 137.387 477.917 143.616V146.432C477.917 152.149 476.85 157.781 474.717 163.328C472.583 168.789 469.383 173.739 465.117 178.176C460.85 182.528 455.517 186.027 449.117 188.672C442.802 191.232 435.421 192.512 426.973 192.512H412.637ZM391.389 192.512V97.792H415.197V192.512H391.389ZM491.014 192V98.56H514.054V192H491.014ZM511.494 192V172.544H550.918V192H511.494ZM511.494 154.24V134.784H548.23V154.24H511.494ZM511.494 118.016V98.56H550.15V118.016H511.494ZM592.889 192V97.792H616.697V192H592.889ZM649.209 192L622.969 152.32H648.825L676.601 192H649.209ZM610.681 163.328V145.024H633.081C635.897 145.024 638.329 144.469 640.377 143.36C642.425 142.251 644.003 140.672 645.113 138.624C646.307 136.576 646.905 134.187 646.905 131.456C646.905 128.64 646.307 126.208 645.113 124.16C644.003 122.112 642.425 120.533 640.377 119.424C638.329 118.315 635.897 117.76 633.081 117.76H610.681V97.792H631.673C639.779 97.792 646.777 99.0293 652.665 101.504C658.553 103.893 663.075 107.477 666.233 112.256C669.39 116.949 670.969 122.795 670.969 129.792V131.84C670.969 138.837 669.347 144.683 666.105 149.376C662.947 153.984 658.425 157.483 652.537 159.872C646.734 162.176 639.779 163.328 631.673 163.328H610.681ZM687.639 192V98.56H710.679V192H687.639ZM708.119 192V172.544H747.543V192H708.119ZM708.119 154.24V134.784H744.855V154.24H708.119ZM708.119 118.016V98.56H746.775V118.016H708.119ZM783.613 192L756.477 98.56H781.053L801.405 175.232L796.925 173.056H809.213L804.605 175.232L823.549 98.56H847.357L822.013 192H783.613ZM859.389 192V98.56H882.429V192H859.389ZM879.869 192V172.544H919.293V192H879.869ZM879.869 154.24V134.784H916.605V154.24H879.869ZM879.869 118.016V98.56H918.525V118.016H879.869ZM926.691 192L956.643 98.56H994.787L1025.76 192H1001.19L977.123 115.2L983.907 117.76H967.011L973.923 115.2L950.499 192H926.691ZM951.139 170.368L958.307 150.912H993.763L1000.93 170.368H951.139ZM1036.26 192V98.56H1060.07V192H1036.26ZM1057.51 192V171.264H1095.4V192H1057.51ZM1140.42 194.56C1131.71 194.56 1124.38 193.195 1118.4 190.464C1112.51 187.733 1108.03 184.021 1104.96 179.328C1101.98 174.549 1100.48 169.088 1100.48 162.944H1123.52C1123.52 165.163 1124.12 167.211 1125.31 169.088C1126.59 170.88 1128.47 172.288 1130.95 173.312C1133.42 174.336 1136.58 174.848 1140.42 174.848C1143.75 174.848 1146.56 174.421 1148.87 173.568C1151.26 172.715 1153.05 171.52 1154.24 169.984C1155.52 168.448 1156.16 166.613 1156.16 164.48C1156.16 161.749 1155.01 159.659 1152.71 158.208C1150.4 156.672 1146.52 155.691 1141.06 155.264L1135.04 154.752C1125.4 153.899 1117.72 150.869 1112 145.664C1106.29 140.459 1103.43 133.547 1103.43 124.928C1103.43 118.784 1104.83 113.536 1107.65 109.184C1110.55 104.832 1114.61 101.504 1119.81 99.2C1125.02 96.896 1131.16 95.744 1138.24 95.744C1145.92 95.744 1152.41 97.024 1157.7 99.584C1163.07 102.144 1167.17 105.771 1169.99 110.464C1172.8 115.072 1174.21 120.448 1174.21 126.592H1151.17C1151.17 124.544 1150.66 122.667 1149.63 120.96C1148.61 119.253 1147.12 117.931 1145.15 116.992C1143.28 115.968 1140.97 115.456 1138.24 115.456C1135.68 115.456 1133.51 115.883 1131.71 116.736C1130.01 117.504 1128.69 118.613 1127.75 120.064C1126.89 121.515 1126.47 123.136 1126.47 124.928C1126.47 127.317 1127.28 129.365 1128.9 131.072C1130.52 132.779 1133.34 133.803 1137.35 134.144L1143.36 134.656C1150.36 135.253 1156.55 136.789 1161.92 139.264C1167.3 141.653 1171.52 144.939 1174.59 149.12C1177.67 153.301 1179.2 158.421 1179.2 164.48C1179.2 170.539 1177.62 175.829 1174.47 180.352C1171.39 184.875 1166.96 188.373 1161.15 190.848C1155.44 193.323 1148.53 194.56 1140.42 194.56Z" fill="white"/>
<path d="M35.1922 137.707C26.1231 146.436 25.8473 160.864 34.5763 169.933C43.3053 179.002 57.7335 179.278 66.8027 170.549L168.72 72.4546C177.789 63.7256 178.065 49.2973 169.336 40.2282C160.607 31.159 146.178 30.8832 137.109 39.6122L35.1922 137.707Z" fill="#D8D8D8"/>
<mask id="mask0_69_117" style="mask-type:luminance" maskUnits="userSpaceOnUse" x="28" y="33" width="148" height="144">
<path d="M35.1922 137.707C26.1231 146.436 25.8473 160.864 34.5763 169.933C43.3053 179.002 57.7335 179.278 66.8027 170.549L168.72 72.4546C177.789 63.7256 178.065 49.2973 169.336 40.2282C160.607 31.159 146.178 30.8832 137.109 39.6122L35.1922 137.707Z" fill="white"/>
</mask>
<g mask="url(#mask0_69_117)">
<path d="M-182.333 -136.75H364.667V410.25H-182.333V-136.75Z" fill="#A600FF"/>
</g>
<path d="M55.0239 136.75L152.866 38.9078C161.767 30.0071 161.767 15.5762 152.866 6.67552C143.965 -2.22517 129.535 -2.22517 120.634 6.67552L6.67548 120.634C-2.22522 129.535 -2.22522 143.965 6.67548 152.866L120.634 266.824C129.535 275.725 143.965 275.725 152.866 266.824C161.767 257.924 161.767 243.493 152.866 234.592L55.0239 136.75Z" fill="black"/>
<mask id="mask1_69_117" style="mask-type:luminance" maskUnits="userSpaceOnUse" x="0" y="0" width="160" height="274">
<path d="M55.0239 136.75L152.866 38.9078C161.767 30.0071 161.767 15.5762 152.866 6.67552C143.965 -2.22517 129.535 -2.22517 120.634 6.67552L6.67548 120.634C-2.22522 129.535 -2.22522 143.965 6.67548 152.866L120.634 266.824C129.535 275.725 143.965 275.725 152.866 266.824C161.767 257.924 161.767 243.493 152.866 234.592L55.0239 136.75Z" fill="white"/>
</mask>
<g mask="url(#mask1_69_117)">
<path d="M-182.333 -136.75H364.667V410.25H-182.333V-136.75Z" fill="#2CEE91"/>
</g>
</svg>
