<svg width="265" height="81" viewBox="0 0 265 81" fill="none" xmlns="http://www.w3.org/2000/svg">
<path d="M82.3123 65.448C79.9327 65.448 77.6829 65.232 75.5629 64.8C73.4429 64.3248 71.6041 63.7632 70.0465 63.1152C68.489 62.4672 67.3425 61.8624 66.6069 61.3008V49.7016C68.6837 50.868 71.3012 51.9696 74.4596 53.0064C77.618 54 81.1225 54.4968 84.9731 54.4968C86.5306 54.4968 87.6771 54.3024 88.4127 53.9136C89.1914 53.4816 89.5808 52.7472 89.5808 51.7104C89.5808 50.5872 88.7155 49.6584 86.9849 48.924C85.2976 48.1464 82.6151 47.196 78.9376 46.0728C76.082 45.1656 73.6376 44.172 71.6041 43.092C69.6139 41.9688 68.078 40.5864 66.9963 38.9448C65.958 37.26 65.4388 35.1216 65.4388 32.5296C65.4388 29.8512 66.131 27.432 67.5155 25.272C68.9 23.112 71.0633 21.4056 74.0053 20.1528C76.9474 18.9 80.7114 18.2736 85.2976 18.2736C86.682 18.2736 88.1531 18.3384 89.7106 18.468C91.3114 18.5544 92.5878 18.684 93.5396 18.8568L100.873 24.2352L98.342 32.1408L82.9612 27.9288C81.1874 27.9288 79.8678 28.296 79.0025 29.0304C78.1804 29.7648 77.7694 30.6504 77.7694 31.6872C77.7694 32.94 78.4833 33.9336 79.911 34.668C81.3388 35.4024 83.3939 36.1368 86.0763 36.8712C90.3163 38.0376 93.6045 39.3336 95.9408 40.7592C98.2771 42.1848 99.9212 43.8048 100.873 45.6192C101.825 47.3904 102.301 49.3992 102.301 51.6456C102.301 55.7928 100.635 59.1408 97.3037 61.6896C93.9723 64.1952 88.9751 65.448 82.3123 65.448ZM120.031 65.448C117.089 65.448 114.731 64.584 112.957 62.856C111.183 61.128 110.297 58.9464 110.297 56.3112V42.1848H105.559V36.0288L109.648 32.8536L114.255 24.8184H121.913V34.2144H130.999V42.6384H121.913V56.5056L130.999 56.4408V63.504C130.999 63.504 130.48 63.6768 129.441 64.0224C128.446 64.3248 127.127 64.6272 125.483 64.9296C123.839 65.2752 122.021 65.448 120.031 65.448ZM145.254 65.448C142.658 65.448 140.646 64.9512 139.218 63.9576C137.834 62.964 136.86 61.5384 136.298 59.6808C135.779 57.78 135.519 55.512 135.519 52.8768V34.1496H147.201V51.192C147.201 52.7904 147.504 54.0432 148.109 54.9504C148.758 55.8576 149.71 56.3112 150.965 56.3112C152.133 56.3112 153.193 55.8144 154.145 54.8208C155.14 53.8272 155.637 52.38 155.637 50.4792V34.1496H167.319V54.3672L168.681 60.8472L167.319 64.8H156.351V61.6248L155.702 61.3008C155.14 61.8624 154.318 62.4672 153.236 63.1152C152.198 63.7632 150.986 64.3248 149.601 64.8C148.261 65.232 146.811 65.448 145.254 65.448ZM184.965 65.448C182.931 65.448 180.963 64.9296 179.059 63.8928C177.198 62.856 175.663 61.2144 174.451 58.968C173.24 56.7216 172.634 53.784 172.634 50.1552C172.634 46.1376 173.218 42.9192 174.386 40.5C175.598 38.0808 177.155 36.3312 179.059 35.2512C180.963 34.128 182.931 33.5664 184.965 33.5664C188.036 33.5664 190.2 33.8256 191.454 34.344C192.752 34.8624 193.401 35.1216 193.401 35.1216L192.752 22.8744L193.401 18.9864H205.148V54.432L206.446 60.912L205.148 64.8648H194.05V61.6896L193.401 61.3656C193.401 61.3656 193.077 61.7112 192.428 62.4024C191.779 63.0504 190.827 63.72 189.572 64.4112C188.318 65.1024 186.782 65.448 184.965 65.448ZM189.832 56.3112L193.401 55.404V45.9432C193.401 44.9496 193.077 44.172 192.428 43.6104C191.779 43.0056 190.914 42.7032 189.832 42.7032C188.231 42.7032 187.02 43.2432 186.198 44.3232C185.376 45.36 184.965 47.088 184.965 49.5072C184.965 51.8832 185.441 53.6112 186.392 54.6912C187.344 55.7712 188.491 56.3112 189.832 56.3112ZM218.772 32.3352L210.53 24.0408L218.772 15.8112L227.014 24.0408L218.772 32.3352ZM212.932 64.8V43.3512L211.569 38.1672L212.867 34.2144H224.613V64.8H212.932ZM246.224 65.448C240.946 65.448 236.857 64.1952 233.959 61.6896C231.06 59.184 229.61 55.1232 229.61 49.5072C229.61 43.848 231.06 39.7872 233.959 37.3248C236.857 34.8192 240.946 33.5664 246.224 33.5664C251.632 33.5664 255.721 34.8192 258.49 37.3248C261.302 39.7872 262.708 43.848 262.708 49.5072C262.708 55.1232 261.302 59.184 258.49 61.6896C255.721 64.1952 251.632 65.448 246.224 65.448ZM246.224 57.024C247.998 57.024 249.231 56.376 249.923 55.08C250.616 53.7408 250.962 51.8832 250.962 49.5072C250.962 47.088 250.616 45.2304 249.923 43.9344C249.231 42.6384 247.998 41.9904 246.224 41.9904C244.407 41.9904 243.131 42.6384 242.395 43.9344C241.703 45.2304 241.357 47.088 241.357 49.5072C241.357 51.8832 241.703 53.7408 242.395 55.08C243.131 56.376 244.407 57.024 246.224 57.024Z" fill="white"/>
<path d="M27.0408 67.5C41.975 67.5 54.0816 55.4117 54.0816 40.5C54.0816 25.5883 41.975 13.5 27.0408 13.5C12.1066 13.5 0 25.5883 0 40.5C0 55.4117 12.1066 67.5 27.0408 67.5Z" fill="white"/>
</svg>
